<svg id="Layer_1" data-name="Layer 1" xmlns="http://www.w3.org/2000/svg" viewBox="0 0 130.25 155.46"><defs><style>.cls-1{fill:#ac8135;}.cls-2{fill:#f2ddc6;}.cls-3{fill:#010101;}.cls-4{fill:#4ac3cd;}.cls-5{fill:#e8b126;}.cls-6{fill:#fff;}.cls-7{fill:#221d1f;}.cls-8{fill:#020202;}</style></defs><title>clara-cats</title><path class="cls-1" d="M91.58,126.21A15,15,0,0,0,93,116.15a5,5,0,0,0-5.51-3.49c-1.52.24-2.48,1.27-3.85,1.76a8.26,8.26,0,0,0-.61-1.64,0.61,0.61,0,0,0-.26-0.29c-0.6-.27-1.63,1.43-2.33,1.61a23.14,23.14,0,0,1-4.4.24l-18,.76-11.86.5c-2.49.11-6-.26-8.38,1a4.79,4.79,0,0,0-.6.38c-1.7-2.07-3-4.06-5.8-4.35-2.47-.25-4.36.53-5.47,2.77s-0.34,4.6.57,6.79c2.17,5.24,4.83,11.52,9.31,15.22-2-1.66-8.16.67-7.11,3.71,0.57,1.63,5.89.9,7.53,0.9l22.6,0,20,0H84c1.28,0,4.17.39,5.24-.34,1.47-1,.92-3.11-0.28-4.07-1.69-1.36-4.22-1.16-6.2-.78,0.76-.15,2-1.7,2.54-2.23,0.8-.77,1.57-1.58,2.3-2.43A28.1,28.1,0,0,0,91.58,126.21Z"/><path class="cls-1" d="M83.88,107.5C84,98.29,90.18,86.93,98.48,83c6.22-3,17-1.33,15,7.64-1.84,8.14-11.75,3-17.15,6.5s-8.68,13.16-10.94,19.06a6.49,6.49,0,0,0-.56,2.27Z"/><path class="cls-1" d="M46.92,70.08c-7.8,8.45-13.22,31-14.65,43.81-1.86,16.77,2.12,25.17,20.13,26.47,15.63,1.13,31.45-1.3,34.7-19.17C90.42,102.92,78.56,91,75.21,73.73Z"/><path class="cls-2" d="M47.93,113.08c0.62-6.48,1.81-15.3,6.26-20.64,5.86-7,12.4,1.4,15.18,6.74,4.42,8.5,4.12,23.47,1.31,32.35-1.61,5.07-4.23,8.33-9.57,9.65C47.2,144.62,47.07,122.05,47.93,113.08Z"/><path class="cls-3" d="M71.34,112.5l9.21,0.86s2.2,17.43-9.21,27.23c0,0-5.54,4.8-2.77-11.64Z"/><path class="cls-3" d="M48.53,112.47l-9.21.86s-2.2,17.43,9.21,27.23c0,0,5.54,4.8,2.77-11.64Z"/><path class="cls-1" d="M86.23,40.74S98,22.53,92.54,15.17c0,0-5.11-3.15-20.51,4.68Z"/><path class="cls-1" d="M91.6,17.95a20.14,20.14,0,0,0-18.37,3.66L72,19.85c15.4-7.83,20.51-4.68,20.51-4.68a7.57,7.57,0,0,1,1.34,3.63A19.72,19.72,0,0,0,91.6,17.95Z"/><path class="cls-2" d="M86.58,40.85s9.89-15.25,5.28-21.44c0,0-4.32-2.65-17.3,3.89Z"/><path class="cls-1" d="M33.8,40.74S22,22.53,27.49,15.17c0,0,5.11-3.15,20.51,4.68Z"/><path class="cls-1" d="M28.43,17.95A20.14,20.14,0,0,1,46.8,21.61L48,19.85C32.6,12,27.49,15.17,27.49,15.17a7.57,7.57,0,0,0-1.34,3.63A19.72,19.72,0,0,1,28.43,17.95Z"/><path class="cls-2" d="M33.45,40.85s-9.89-15.25-5.28-21.44c0,0,4.32-2.65,17.3,3.89Z"/><path class="cls-4" d="M45.42,61.86c-19.79,12,8.15,18.5,18.51,17.43,9.74-1,19.82-6,17.66-17.45a51.15,51.15,0,0,0-24.34-3.45C53.67,58.75,48.64,59.91,45.42,61.86Z"/><path class="cls-5" d="M59.76,86.57c12-1.09.26-18.14-5.3-8.5C51.75,82.76,56.37,86.88,59.76,86.57Z"/><path class="cls-6" d="M61.77,81.09c-0.09-.41-0.16-0.88-0.3-1.32A2.22,2.22,0,0,0,58,78.6a3.26,3.26,0,0,0-.27,4.92,3.53,3.53,0,0,0,2.82,1c-2,1.31-4.6-.69-4.81-3.65a1.23,1.23,0,0,0-.57,1.54,5.38,5.38,0,0,0,3.06,3.07,2.7,2.7,0,0,0,3.07-.54,10.12,10.12,0,0,0,1.6-1.9,3.38,3.38,0,0,0-.4-4.54c-1.46-1.38-3.75-2.2-5.4-.94a3.86,3.86,0,0,0-1.71,2.9,15.83,15.83,0,0,0,1.49-1.6,3,3,0,0,1,4.43-.52,2,2,0,0,1,.47,2.76"/><path class="cls-1" d="M92.87,50.71c0,13.88-8.48,21.57-20.54,24.53-1.28.32-2.61,0.58-4,.78a61.67,61.67,0,0,1-17.74,0c-1.37-.21-2.7-0.46-4-0.78-12.06-3-20.54-10.65-20.54-24.53,0-18.44,15-34.32,33.39-34.32S92.87,32.26,92.87,50.71Z"/><path class="cls-1" d="M85.58,58.76a2.61,2.61,0,0,0,.78.84,5.67,5.67,0,0,0-.46,1.15,5.35,5.35,0,0,0-.23,2.82,3.85,3.85,0,0,0-.7,1.17c-1.82,4.83,1.51,2.7,3.4,3.16a4.83,4.83,0,0,1,3.19,2.86s0.92-3.93-.18-6.46a5.44,5.44,0,0,1,1.69,1.77,21.53,21.53,0,0,0-.12-6,24,24,0,0,0,2.35-.56s-2.73-1-2.84-3.29c-0.09-1.93,1.1-5-3.6-2.88C86.87,54.24,84.62,57.08,85.58,58.76Z"/><path class="cls-1" d="M64,22.43a2.61,2.61,0,0,0,.41-1.08,5.67,5.67,0,0,0,1.23-.09,5.35,5.35,0,0,0,2.63-1,3.85,3.85,0,0,0,1.36.12c5.14-.49,1.76-2.55,1.35-4.44a4.83,4.83,0,0,1,1.17-4.12s-3.94.9-5.73,3a5.44,5.44,0,0,1,.85-2.3A21.53,21.53,0,0,0,62,15.24a24,24,0,0,0-1.54-1.87s0.34,2.87-1.71,4c-1.69.93-5,1.21-1,4.5C59.41,23.25,63,24,64,22.43Z"/><path class="cls-1" d="M33.13,58.76a2.61,2.61,0,0,1-.78.84,5.67,5.67,0,0,1,.46,1.15A5.35,5.35,0,0,1,33,63.57a3.85,3.85,0,0,1,.7,1.17c1.82,4.83-1.51,2.7-3.4,3.16a4.83,4.83,0,0,0-3.19,2.86s-0.92-3.93.18-6.46a5.44,5.44,0,0,0-1.69,1.77,21.53,21.53,0,0,1,.12-6,24,24,0,0,1-2.35-.56s2.73-1,2.84-3.29c0.09-1.93-1.1-5,3.6-2.88C31.83,54.24,34.09,57.08,33.13,58.76Z"/><path class="cls-7" d="M64,68.15A0.42,0.42,0,0,0,63.37,68a2.91,2.91,0,0,1-4.28-1c-0.71-1.42-.51-3.12-0.56-4.66a0.42,0.42,0,1,0-.83,0c0.07,2,.89,4.65-0.59,6.4a2.89,2.89,0,0,1-2.73.95,1.13,1.13,0,0,1-.82-1.06,0.42,0.42,0,1,0-.83.11,2,2,0,0,0,1.41,1.76,2.58,2.58,0,0,0,.73.1,3.72,3.72,0,0,0,3.67-2.88,4.18,4.18,0,0,0,.27.35,3.72,3.72,0,0,0,5,.62A0.42,0.42,0,0,0,64,68.15Z"/><path class="cls-2" d="M63.55,59.77c-0.29-1.86-5-.69-5.43-0.56-0.26-.07-5.17-1.35-5.46.56s3.21,5.27,5.42,5.32h0C60.28,65.09,63.85,61.73,63.55,59.77Z"/><path class="cls-1" d="M105.2,88.91a2.61,2.61,0,0,1,1,.58,5.67,5.67,0,0,1,1-.7,5.35,5.35,0,0,1,2.7-.84,3.85,3.85,0,0,1,1-.94c4.32-2.83,3,.89,3.82,2.62a4.83,4.83,0,0,0,3.49,2.48s-3.64,1.76-6.34,1.24a5.44,5.44,0,0,0,2.1,1.27,21.53,21.53,0,0,1-5.88,1.2,24,24,0,0,1,0,2.42s-1.52-2.45-3.83-2.05c-1.9.33-4.65,2.17-3.6-2.89C101.07,91.16,103.35,88.34,105.2,88.91Z"/><path class="cls-1" d="M100.84,89.35a2.61,2.61,0,0,0,.22-1.13,5.67,5.67,0,0,0,1.2-.31,5.35,5.35,0,0,0,2.41-1.48A3.85,3.85,0,0,0,106,86.3c5-1.4,1.28-2.82.53-4.61a4.83,4.83,0,0,1,.42-4.26s-3.72,1.59-5.1,4A5.44,5.44,0,0,1,102.3,79a21.53,21.53,0,0,0-4.77,3.65,24,24,0,0,0-1.85-1.57s0.85,2.76-1,4.24c-1.5,1.22-4.69,2.08-.19,4.61C96.43,91,100,91.12,100.84,89.35Z"/><path class="cls-8" d="M79.12,49.29a0.32,0.32,0,1,1,0,0L79,49.48l-0.17.33a2.32,2.32,0,0,0-.24,1.06,2,2,0,0,0,.48,1.32,1.13,1.13,0,0,0,.76.31c-0.33,0-.11,0,0,0a1.12,1.12,0,0,0,1.36-.77,11,11,0,0,0,.14-1.22c0-.06.1-0.54,0-0.27,0.06-.26.1-0.51,0.13-0.78a1.4,1.4,0,0,0-1.38-1.38l-0.28,0a1.37,1.37,0,0,0-1.23.7,3.67,3.67,0,0,0-.37,1.42c0,0.14,0,.28,0,0.42a1.88,1.88,0,1,1,0,.28,2.3,2.3,0,0,0,.08.51,1.39,1.39,0,0,0,2.3.61,2,2,0,0,0,.56-1.4,3.18,3.18,0,0,0,0-.42,2.54,2.54,0,0,1,0-.28q0,0.22.05,0l-1.37,1,0.28,0-1.38-1.38a5,5,0,0,0,.1.67q0,0.21,0,0l0,0.37c0.05,0.4.06,0.82,0.14,1.22l0.77-1.36c-0.21,0-.06,0,0,0l0.9,0.52a0.94,0.94,0,0,1-.19-0.32q0,0.13,0-.05c0-.1,0-0.19,0-0.29a3.25,3.25,0,0,0,0-1,0.74,0.74,0,0,0-1.42,0h0Z"/><path class="cls-8" d="M37.43,47.93a2.48,2.48,0,0,0-.12,2.79,1.37,1.37,0,0,0,1.14.66,1.32,1.32,0,0,0,1.28-1c0.11-.74.34-1.46,0.45-2.21a1.52,1.52,0,0,0-1-1.85l-0.27,0a1.58,1.58,0,0,0-1.75.71c-0.57,1-1.5,3.65,0,4.3C38.18,51.77,39,51,39.35,50a9,9,0,0,0,.59-1.83l-1.08,1.08,0.27,0-1.9-1.45c0.07,0.75-.16,1.5-0.11,2.25l2.26-.94c-0.2-.18-0.15-0.07-0.17-0.29a2.42,2.42,0,0,0-.31-0.89,0.86,0.86,0,0,0-1.48,0h0Z"/><circle class="cls-6" cx="38.49" cy="47.22" r="0.89" transform="translate(-19.66 65.38) rotate(-68.16)"/><circle class="cls-6" cx="80.02" cy="49.1" r="0.89" transform="translate(4.68 105.12) rotate(-68.16)"/></svg>