<svg xmlns="http://www.w3.org/2000/svg" viewBox="0 0 126.89 155.46"><defs><style>.cls-1{isolation:isolate;}.cls-2{fill:#5c5c60;}.cls-3{fill:#333;}.cls-25,.cls-4{fill:#b4b4b4;}.cls-26,.cls-5{fill:#e6e6e5;}.cls-6,.cls-7{fill:#cdcccc;}.cls-10,.cls-25,.cls-26,.cls-7{opacity:0.5;mix-blend-mode:multiply;}.cls-8{fill:#c4e5e2;opacity:0.3;}.cls-10,.cls-9{fill:#989898;}.cls-11{opacity:0.85;}.cls-12{fill:#f7f9f9;}.cls-13{fill:#ac8135;}.cls-14{fill:#f2ddc6;}.cls-15{fill:#c62c33;}.cls-16{fill:#4bc3ce;}.cls-17{fill:#221d1f;}.cls-18{fill:#020202;}.cls-19{fill:#fff;}.cls-20{fill:#e15544;}.cls-21{fill:#c6c4c4;opacity:0.2;}.cls-22{fill:#3db1b9;}.cls-23{fill:#8bbb43;}.cls-24{fill:#541c57;}.cls-27{fill:#333232;}.cls-28{fill:#dd2f27;}.cls-29{fill:#ef3c29;}</style></defs><title>clara-cats</title><g class="cls-1"><g id="Layer_1" data-name="Layer 1"><path class="cls-2" d="M93.64,131.1c-0.05,2-2.71,3.57-5.93,3.48L40,133.32c-3.22-.09-5.79-1.78-5.74-3.79l1.24-46.85c0.05-2,2.71-3.57,5.93-3.48l47.69,1.26c3.22,0.09,5.79,1.78,5.74,3.79Z"/><path class="cls-3" d="M38.26,145.16c0-.42-0.16-1.41-0.73-1.48a13.39,13.39,0,0,0-3.48.55c-1.49.24-3,.36-4.51,0.47s-3,.22-4.52.38c-0.69.08-1.37,0.17-2.07,0.2s-1.33-.13-2-0.09a3.43,3.43,0,0,0-.37.48c0,0.4.47,4.44,1.77,3.17a0.54,0.54,0,0,0,.23-0.51q-0.16-.37.36-0.33c0.31,0,.16.28,0.21,0.44a1.16,1.16,0,0,0,1.46.62,0.24,0.24,0,0,0,.21-0.2c0.05-.47,0-0.7.64-0.67s0.27,0.35.43,0.69c0.27,0.56.9,0.42,1.44,0.48a0.24,0.24,0,0,0,.27-0.19,0.75,0.75,0,0,1,.68-0.76,3.94,3.94,0,0,1,.66.83,1.94,1.94,0,0,0,1.52,0,0.4,0.4,0,0,0,.18-0.35,1.28,1.28,0,0,1,.84-0.7c0,0.46,0,.94.58,1a2.16,2.16,0,0,0,1.35-.34c0.29-.3.6-2,0.72-0.85,0.1,0.89,1.77.23,1.7-.61-0.12-1.32.47-.19,0.81-0.12a2.22,2.22,0,0,0,1.51-.46C38.57,146.53,38.3,145.52,38.26,145.16Z"/><path class="cls-4" d="M41.54,112.67c-1.62-2.25-5.38-3.21-7.63-1.25-3.7,3.23-5.71,7.11-7.07,11.77a29.5,29.5,0,0,0-1,6.73c-0.07,1.34-.1,2.67-0.1,4q0,0.63,0,1.25c0,0.05,0,.1,0,0.15-1.22,4.28,3.81,9.42,8.43,6.08,3.79-2.75,2.2-8.11,2.61-12.13,0.31-3,1.16-6.94,3.5-9S43.41,115.26,41.54,112.67Z"/><path class="cls-5" d="M33.16,130.61a13.61,13.61,0,0,1-3.7-.49,35.09,35.09,0,0,0-3.56-1.21c0,0.34,0,.67-0.06,1-0.07,1.34-.1,2.67-0.1,4q0,0.63,0,1.25c0,0.05,0,.1,0,0.15-1.22,4.28,3.81,9.42,8.43,6.08,3.36-2.43,2.49-6.92,2.54-10.71C35.35,130.76,33.92,130.63,33.16,130.61Z"/><path class="cls-5" d="M26.43,124.88a29,29,0,0,0-.45,2.95c1.72,0.33,3.22,1.3,5,1.53a31.43,31.43,0,0,0,4.34.07c0.25,0,.83,0,1.46,0,0-.06,0-0.12,0-0.18,0-.45.11-0.93,0.18-1.41A18.8,18.8,0,0,1,26.43,124.88Z"/><path class="cls-5" d="M33.09,123.3c-1.79-1-3.46-2.16-5.14-3.33-0.42,1-.78,2.11-1.11,3.23-0.05.19-.1,0.37-0.15,0.56a18,18,0,0,0,10.48,3c0.12-.59.26-1.19,0.44-1.77A33.16,33.16,0,0,1,33.09,123.3Z"/><path class="cls-5" d="M41.54,112.67c-1.62-2.25-5.38-3.21-7.63-1.25a21.38,21.38,0,0,0-5.52,7.51,30,30,0,0,0,6.94,4.17c0.84,0.3,1.74.55,2.62,0.86a9,9,0,0,1,2.35-3.67C42.54,118.35,43.41,115.26,41.54,112.67Z"/><path class="cls-6" d="M37.21,131.36a0.22,0.22,0,0,0-.26-0.21,4,4,0,0,0-1.47.3,14,14,0,0,1-3.06.38,14.35,14.35,0,0,1-3.69-.16,21.2,21.2,0,0,1-3-1.07,0.26,0.26,0,0,0-.33.3,44,44,0,0,0,.21,7.28c-2.28-.35-4,1.16-4.74,3.36a9.56,9.56,0,0,0-.32,4.4A1.21,1.21,0,0,0,22,147.21c3.57,0.15,7,.8,10.56.12a10.32,10.32,0,0,0,3.76-1.57c0.29-.19.78-0.44,1.19-0.72l0.13-.1a2.12,2.12,0,0,0,.36-0.63l0-.06a63,63,0,0,1-.38-6.91v-0.07C37.51,135.29,37.39,133.32,37.21,131.36Z"/><path class="cls-7" d="M37,134.31a6.45,6.45,0,0,0-1.06,2.82c-0.22,1.8-.2,4-1.43,5.47a7.09,7.09,0,0,1-4.72,2.34c-2.31.35-4.66,1.18-7,1.4a4.13,4.13,0,0,1-2.2-.36A1.2,1.2,0,0,0,22,147.21c3.57,0.15,7,.8,10.56.12a10.32,10.32,0,0,0,3.76-1.57c0.29-.19.78-0.44,1.19-0.72l0.13-.1a2.12,2.12,0,0,0,.36-0.63l0-.06a63,63,0,0,1-.38-6.91v-0.07c-0.08-1.09-.15-2.18-0.23-3.27A0.7,0.7,0,0,0,37,134.31Z"/><path class="cls-3" d="M87.72,146.79a2.22,2.22,0,0,0,1.51.46c0.34-.07.93-1.2,0.81,0.12-0.07.84,1.59,1.51,1.7,0.61,0.13-1.12.43,0.55,0.72,0.85a2.16,2.16,0,0,0,1.35.34c0.54-.07.55-0.55,0.58-1a1.28,1.28,0,0,1,.84.7,0.4,0.4,0,0,0,.18.35,1.94,1.94,0,0,0,1.52,0,3.94,3.94,0,0,1,.66-0.83,0.75,0.75,0,0,1,.68.76,0.24,0.24,0,0,0,.27.19c0.54-.05,1.17.08,1.44-0.48,0.16-.34-0.18-0.65.43-0.69s0.59,0.2.64,0.67a0.24,0.24,0,0,0,.21.2,1.16,1.16,0,0,0,1.46-.62c0-.17-0.1-0.43.21-0.44s0.46,0.08.36,0.33a0.54,0.54,0,0,0,.23.51c1.3,1.27,1.73-2.77,1.77-3.17a3.43,3.43,0,0,0-.37-0.48c-0.68,0-1.33.12-2,.09s-1.38-.13-2.07-0.2c-1.5-.16-3-0.27-4.52-0.38s-3-.23-4.51-0.47a13.39,13.39,0,0,0-3.48-.55c-0.57.07-.7,1.06-0.73,1.48S87.3,146.53,87.72,146.79Z"/><path class="cls-4" d="M84.33,112.67c1.62-2.25,5.38-3.21,7.63-1.25,3.7,3.23,5.71,7.11,7.07,11.77a29.5,29.5,0,0,1,1,6.73c0.07,1.34.1,2.67,0.1,4q0,0.63,0,1.25c0,0.05,0,.1,0,0.15,1.22,4.28-3.81,9.42-8.43,6.08-3.79-2.75-2.2-8.11-2.61-12.13-0.31-3-1.16-6.94-3.5-9S82.46,115.26,84.33,112.67Z"/><path class="cls-5" d="M92.71,130.61a13.61,13.61,0,0,0,3.7-.49,35.09,35.09,0,0,1,3.56-1.21c0,0.34,0,.67.06,1,0.07,1.34.1,2.67,0.1,4q0,0.63,0,1.25c0,0.05,0,.1,0,0.15,1.22,4.28-3.81,9.42-8.43,6.08-3.36-2.43-2.49-6.92-2.54-10.71C90.52,130.76,92,130.63,92.71,130.61Z"/><path class="cls-5" d="M99.44,124.88a29,29,0,0,1,.45,2.95c-1.72.33-3.22,1.3-5,1.53a31.43,31.43,0,0,1-4.34.07c-0.25,0-.83,0-1.46,0,0-.06,0-0.12,0-0.18,0-.45-0.11-0.93-0.18-1.41A18.8,18.8,0,0,0,99.44,124.88Z"/><path class="cls-5" d="M92.78,123.3c1.79-1,3.46-2.16,5.14-3.33,0.42,1,.78,2.11,1.11,3.23,0.05,0.19.1,0.37,0.15,0.56a18,18,0,0,1-10.48,3c-0.12-.59-0.26-1.19-0.44-1.77A33.16,33.16,0,0,0,92.78,123.3Z"/><path class="cls-5" d="M84.33,112.67c1.62-2.25,5.38-3.21,7.63-1.25a21.38,21.38,0,0,1,5.52,7.51,30,30,0,0,1-6.94,4.17c-0.84.3-1.74,0.55-2.62,0.86a9,9,0,0,0-2.35-3.67C83.33,118.35,82.46,115.26,84.33,112.67Z"/><path class="cls-6" d="M88.22,137.26v0.07a63,63,0,0,1-.38,6.91l0,0.06a2.12,2.12,0,0,0,.36.63l0.13,0.1c0.41,0.29.9,0.53,1.19,0.72a10.32,10.32,0,0,0,3.76,1.57c3.57,0.68,7,0,10.56-.12a1.21,1.21,0,0,0,1.43-1.26,9.56,9.56,0,0,0-.32-4.4c-0.7-2.2-2.46-3.71-4.74-3.36a44,44,0,0,0,.21-7.28,0.26,0.26,0,0,0-.33-0.3,21.2,21.2,0,0,1-3,1.07,14.35,14.35,0,0,1-3.69.16,14,14,0,0,1-3.06-.38,4,4,0,0,0-1.47-.3,0.22,0.22,0,0,0-.26.21C88.48,133.32,88.36,135.29,88.22,137.26Z"/><path class="cls-7" d="M88.89,134.31A6.45,6.45,0,0,1,90,137.13c0.22,1.8.2,4,1.43,5.47a7.09,7.09,0,0,0,4.72,2.34c2.31,0.35,4.66,1.18,7,1.4a4.13,4.13,0,0,0,2.2-.36,1.2,1.2,0,0,1-1.42,1.23c-3.57.15-7,.8-10.56,0.12a10.32,10.32,0,0,1-3.76-1.57c-0.29-.19-0.78-0.44-1.19-0.72l-0.13-.1a2.12,2.12,0,0,1-.36-0.63l0-.06a63,63,0,0,0,.38-6.91v-0.07c0.08-1.09.15-2.18,0.23-3.27A0.7,0.7,0,0,1,88.89,134.31Z"/><path class="cls-8" d="M53.27,84.24s-40.88,9.73-35-44c2.31-21,19.16-33.55,44-34h0c24.83-.4,41.08,8,44.69,34,7.09,51-36,44-36,44s8,4.17-9,2.54S53.27,84.24,53.27,84.24Z"/><path class="cls-4" d="M50.28,95.1c-1-3.62-4.49-5.12-7.95-4.49q0.83,0-.45,0-0.79,0-1.58,0a18.54,18.54,0,0,1-2.42-.16A18.1,18.1,0,0,1,32.75,89c-3.45-1.87-5.13-6.25-6.72-9.75-1.46-3.2-6-3.94-8.83-2.29-3.26,1.92-3.75,5.63-2.29,8.83,2.62,5.77,5.86,11,11.36,14.37s13.22,4.07,19.53,2.92C49.26,102.41,51.16,98.25,50.28,95.1Z"/><path class="cls-5" d="M23.52,91.38a38.65,38.65,0,0,0,5.8-5.72q-0.42-.61-0.79-1.27a50,50,0,0,1-11,6.46,33.55,33.55,0,0,0,2.25,3.32C21,93.24,22.28,92.33,23.52,91.38Z"/><path class="cls-5" d="M28.36,95.72c1.11-2.52,2-5.14,3-7.68a10.49,10.49,0,0,1-1.28-1.3A33.71,33.71,0,0,1,25,91.88c-1.46,1.12-2.94,2.2-4.42,3.29a24,24,0,0,0,5.11,4.58A17.33,17.33,0,0,0,28.36,95.72Z"/><path class="cls-5" d="M34.49,89.69A12,12,0,0,1,32.75,89l-0.25-.15c-1,2.52-1.8,5.11-3,7.56a21.3,21.3,0,0,1-2.74,4,22.7,22.7,0,0,0,6.17,2.38C34.26,98.59,34.43,94.16,34.49,89.69Z"/><path class="cls-5" d="M50.28,95.1c-1-3.62-4.49-5.12-7.95-4.49q0.83,0-.45,0-0.79,0-1.58,0a18.54,18.54,0,0,1-2.42-.16,19.65,19.65,0,0,1-2.09-.45,45.89,45.89,0,0,1-1.58,13,32.63,32.63,0,0,0,11.59,0C49.26,102.41,51.16,98.25,50.28,95.1Z"/><path class="cls-5" d="M16.88,89.71a48.29,48.29,0,0,0,11-6.47c-0.69-1.35-1.28-2.74-1.86-4-1.46-3.2-6-3.94-8.83-2.29-3.26,1.92-3.75,5.63-2.29,8.83C15.52,87.11,16.18,88.43,16.88,89.71Z"/><path class="cls-9" d="M26.05,70.14c-1.6-.71-2.06,1.34-2.27,2.7-0.08.53-.06,1.26-0.21,1.85-0.43-1.23-.6-2.61-1.07-3.84a6.3,6.3,0,0,0-2.72-3.28,4.39,4.39,0,0,0-5.94,1.22c-1.53,2.41-1.61,5.7-1.35,8.55a31.91,31.91,0,0,0,.8,4.48c0.22,0.91.6,3.07,1.62,3.31a8.12,8.12,0,0,0,3.48-.4,14.6,14.6,0,0,0,4.9-2.45,8.16,8.16,0,0,0,2.76-2.5c0.62-1.16.63-2.83,0.89-4.13C27.26,74.08,27.84,70.93,26.05,70.14Z"/><path class="cls-10" d="M26.84,75.16c-1.38,2.74-5.66,6.1-9,5a5.08,5.08,0,0,1-3.31-2.93,6.56,6.56,0,0,1-.5-2.22q0-.66-0.09-1.32a1.8,1.8,0,0,0-.27-0.44,0.77,0.77,0,0,0-.8-0.39l-0.08,0-0.33.21a21.71,21.71,0,0,0,0,4.23,31.93,31.93,0,0,0,.8,4.48c0.22,0.91.6,3.07,1.62,3.31a8.12,8.12,0,0,0,3.48-.4,14.6,14.6,0,0,0,4.9-2.45,8.16,8.16,0,0,0,2.76-2.5c0.62-1.16.63-2.83,0.89-4.13,0.07-.36.15-0.81,0.22-1.29A7.69,7.69,0,0,1,26.84,75.16Z"/><path class="cls-6" d="M26.34,78.79a24.72,24.72,0,0,1-4.83,2.9,16.3,16.3,0,0,1-6.8,2c-2.17,0-2.16,3.41,0,3.37a19,19,0,0,0,6.87-1.76,26.27,26.27,0,0,0,7.13-4.18C30.32,79.69,27.93,77.32,26.34,78.79Z"/><path class="cls-7" d="M26.21,81.39c-0.77.48-1.54,1-2.35,1.41a23.72,23.72,0,0,1-3.72,1.69c-2.33.76-4.63,1.49-7,1a1.55,1.55,0,0,0,1.63,1.63,19,19,0,0,0,6.87-1.76,28.68,28.68,0,0,0,6.58-3.71C27.95,81,27.09,80.83,26.21,81.39Z"/><g class="cls-11"><path class="cls-12" d="M54.53,11.45l-2,1.29c-0.63.41-1.37,0.92-2.22,1.5s-1.79,1.27-2.81,2-2.07,1.59-3.19,2.47c-0.54.47-1.12,0.91-1.67,1.4L41,21.62,39.3,23.24c-0.53.58-1.06,1.16-1.61,1.73s-1,1.23-1.52,1.83l-1.4,1.93-1.24,2-0.08.13s-0.06.1,0,0l0,0.07-0.14.28L33,31.77l-0.59,1.12Q31.81,34,31.21,35.08l-1,2.1c-0.69,1.35-1.21,2.74-1.74,4.05-0.3.65-.46,1.31-0.68,1.93s-0.46,1.23-.59,1.83c-0.3,1.2-.61,2.3-0.79,3.32l-0.53,2.64c-0.3,1.48-.53,2.32-0.53,2.32s-0.13-.86-0.29-2.35c-0.07-.75-0.2-1.66-0.22-2.72,0-.53-0.07-1.1-0.05-1.7L24.9,44.6c0-.67.16-1.34,0.23-2.06a18.24,18.24,0,0,1,.39-2.18,34,34,0,0,1,1.35-4.6c0.28-.79.58-1.59,0.89-2.39s0.69-1.5,1-2.26L29.35,30l0.27-.57,0.14-.28,0-.07,0.07-.13L30,28.76c0.47-.78.92-1.58,1.41-2.34L33,24.25l1.78-2c0.63-.62,1.26-1.21,1.89-1.8s1.31-1.09,2-1.61a43.26,43.26,0,0,1,3.95-2.66,41.86,41.86,0,0,1,3.75-2,35.09,35.09,0,0,1,3.29-1.37c1-.38,1.87-0.64,2.6-0.85A20.91,20.91,0,0,1,54.53,11.45Z"/></g><path class="cls-13" d="M86.57,115.75c0.1-9.21,6.31-20.59,14.61-24.55,6.23-3,17-1.33,15,7.65-1.84,8.15-11.76,3-17.16,6.51S90.3,118.52,88,124.43a6.49,6.49,0,0,0-.56,2.27Z"/><path class="cls-5" d="M49.58,78.3c-7.81,8.45-13.23,31-14.66,43.84C33,138.92,37,147.33,55.06,148.63c15.64,1.13,31.48-1.3,34.73-19.19,3.33-18.29-8.54-30.22-11.9-47.5Z"/><path class="cls-13" d="M88.93,48.93s11.77-18.23,6.31-25.6c0,0-5.12-3.16-20.53,4.68Z"/><path class="cls-13" d="M94.3,26.11a20.16,20.16,0,0,0-18.39,3.67L74.71,28c15.41-7.84,20.53-4.68,20.53-4.68A7.57,7.57,0,0,1,96.59,27,19.73,19.73,0,0,0,94.3,26.11Z"/><path class="cls-14" d="M89.27,49s9.9-15.27,5.29-21.45c0,0-4.32-2.66-17.31,3.89Z"/><path class="cls-13" d="M36.44,48.93S24.68,30.7,30.13,23.34c0,0,5.12-3.16,20.53,4.68Z"/><path class="cls-13" d="M31.07,26.11a20.16,20.16,0,0,1,18.39,3.67L50.66,28c-15.41-7.84-20.53-4.68-20.53-4.68A7.57,7.57,0,0,0,28.78,27,19.73,19.73,0,0,1,31.07,26.11Z"/><path class="cls-14" d="M36.1,49s-9.9-15.27-5.29-21.45c0,0,4.32-2.66,17.31,3.89Z"/><path class="cls-15" d="M48.08,70.07c-19.8,12,8.15,18.52,18.52,17.45,9.75-1,19.84-6,17.67-17.47A51.19,51.19,0,0,0,59.92,66.6C56.33,67,51.3,68.12,48.08,70.07Z"/><path class="cls-16" d="M62.43,94.8c12-1.09.26-18.15-5.31-8.51C54.41,91,59,95.1,62.43,94.8Z"/><path class="cls-13" d="M95.57,58.9c0,13.89-8.48,21.59-20.56,24.55-1.28.32-2.61,0.58-4,.78a61.73,61.73,0,0,1-17.75,0c-1.37-.21-2.7-0.47-4-0.78-12.08-3-20.56-10.66-20.56-24.55,0-18.46,15-34.35,33.42-34.35S95.57,40.45,95.57,58.9Z"/><path class="cls-13" d="M88.27,67a2.61,2.61,0,0,0,.79.84A5.67,5.67,0,0,0,88.6,69a5.35,5.35,0,0,0-.23,2.82,3.85,3.85,0,0,0-.7,1.17c-1.82,4.83,1.52,2.71,3.4,3.16A4.84,4.84,0,0,1,94.25,79s0.92-3.94-.18-6.47a5.44,5.44,0,0,1,1.7,1.77,21.55,21.55,0,0,0-.12-6A24,24,0,0,0,98,67.71s-2.73-1-2.84-3.29c-0.09-1.93,1.1-5-3.6-2.88C89.57,62.44,87.31,65.28,88.27,67Z"/><path class="cls-13" d="M66.72,30.61a2.61,2.61,0,0,0,.41-1.08,5.67,5.67,0,0,0,1.23-.09,5.35,5.35,0,0,0,2.64-1,3.85,3.85,0,0,0,1.36.12c5.14-.49,1.77-2.55,1.35-4.44A4.84,4.84,0,0,1,74.89,20s-3.94.9-5.73,3a5.44,5.44,0,0,1,.85-2.3,21.55,21.55,0,0,0-5.35,2.74,24,24,0,0,0-1.54-1.87s0.34,2.87-1.71,4c-1.7.93-5,1.21-1,4.5C62.08,31.43,65.62,32.21,66.72,30.61Z"/><path class="cls-13" d="M35.78,67a2.61,2.61,0,0,1-.79.84A5.67,5.67,0,0,1,35.45,69a5.35,5.35,0,0,1,.23,2.82,3.85,3.85,0,0,1,.7,1.17c1.82,4.83-1.52,2.71-3.4,3.16A4.84,4.84,0,0,0,29.8,79S28.87,75,30,72.51a5.44,5.44,0,0,0-1.7,1.77,21.55,21.55,0,0,1,.12-6A24,24,0,0,1,26,67.71s2.73-1,2.84-3.29c0.09-1.93-1.1-5,3.6-2.88C34.48,62.44,36.73,65.28,35.78,67Z"/><path class="cls-17" d="M66.63,76.37A0.42,0.42,0,0,0,66,76.26a2.91,2.91,0,0,1-4.28-1c-0.71-1.42-.51-3.13-0.56-4.66a0.42,0.42,0,1,0-.83,0c0.07,2,.89,4.66-0.59,6.4A2.89,2.89,0,0,1,57,78a1.13,1.13,0,0,1-.82-1.07,0.42,0.42,0,1,0-.83.11,2,2,0,0,0,1.41,1.76,2.58,2.58,0,0,0,.73.1A3.73,3.73,0,0,0,61.21,76a4.18,4.18,0,0,0,.27.35,3.73,3.73,0,0,0,5,.62A0.42,0.42,0,0,0,66.63,76.37Z"/><path class="cls-14" d="M66.22,68c-0.29-1.86-5-.69-5.44-0.56-0.26-.07-5.17-1.35-5.47.56s3.21,5.27,5.43,5.33h0C63,73.3,66.52,69.93,66.22,68Z"/><path class="cls-13" d="M107.91,97.14a2.61,2.61,0,0,1,1,.58,5.67,5.67,0,0,1,1-.7,5.35,5.35,0,0,1,2.7-.84,3.85,3.85,0,0,1,1-.94c4.32-2.83,3,.89,3.83,2.63a4.84,4.84,0,0,0,3.49,2.49s-3.64,1.76-6.35,1.24a5.44,5.44,0,0,0,2.1,1.27,21.55,21.55,0,0,1-5.89,1.2,24,24,0,0,1,0,2.42s-1.53-2.46-3.83-2.06c-1.91.33-4.65,2.17-3.6-2.89C103.78,99.39,106.06,96.57,107.91,97.14Z"/><path class="cls-13" d="M103.54,97.58a2.61,2.61,0,0,0,.22-1.13,5.67,5.67,0,0,0,1.2-.31,5.35,5.35,0,0,0,2.41-1.48,3.85,3.85,0,0,0,1.36-.13c5-1.4,1.28-2.82.54-4.61a4.84,4.84,0,0,1,.42-4.27s-3.72,1.59-5.11,4a5.44,5.44,0,0,1,.42-2.42,21.55,21.55,0,0,0-4.77,3.65,24,24,0,0,0-1.85-1.57s0.85,2.76-1,4.24c-1.5,1.22-4.69,2.08-.19,4.61C99.13,99.22,102.75,99.35,103.54,97.58Z"/><path class="cls-18" d="M81.81,57.49a0.32,0.32,0,1,1,0,0l-0.08.15L81.54,58a2.33,2.33,0,0,0-.24,1.06,2.05,2.05,0,0,0,.48,1.32,1.13,1.13,0,0,0,.76.31c-0.33,0-.11,0,0,0a1.12,1.12,0,0,0,1.36-.77A11,11,0,0,0,84,58.73c0-.06.1-0.54,0-0.27,0.06-.26.1-0.51,0.13-0.78a1.4,1.4,0,0,0-1.39-1.39l-0.28,0a1.37,1.37,0,0,0-1.23.7,3.67,3.67,0,0,0-.37,1.42c0,0.14,0,.28,0,0.42a1.88,1.88,0,1,1,0,.28,2.3,2.3,0,0,0,.08.51,1.39,1.39,0,0,0,2.31.61,2,2,0,0,0,.56-1.4,3.18,3.18,0,0,0,0-.42,2.54,2.54,0,0,1,0-.28q0,0.22.05,0l-1.37,1,0.28,0-1.39-1.39a5,5,0,0,0,.1.67q0,0.21,0,0l0,0.37c0.05,0.4.06,0.82,0.15,1.22l0.77-1.36c-0.21,0-.06,0,0,0l0.9,0.52a0.94,0.94,0,0,1-.19-0.32q0,0.13,0-.05c0-.1,0-0.19,0-0.29a3.25,3.25,0,0,0,0-1,0.75,0.75,0,0,0-1.43,0h0Z"/><path class="cls-18" d="M40.08,56.12A2.48,2.48,0,0,0,40,58.92a1.37,1.37,0,0,0,1.14.66,1.32,1.32,0,0,0,1.28-1c0.11-.74.34-1.46,0.45-2.21a1.52,1.52,0,0,0-1-1.85l-0.27,0a1.58,1.58,0,0,0-1.75.71c-0.57,1-1.5,3.66,0,4.3,1.06,0.45,1.86-.32,2.23-1.28a9,9,0,0,0,.59-1.83l-1.08,1.08,0.27,0L39.88,56c0.07,0.75-.16,1.5-0.11,2.25L42,57.31c-0.2-.18-0.15-0.07-0.17-0.29a2.42,2.42,0,0,0-.31-0.89,0.87,0.87,0,0,0-1.48,0h0Z"/><circle class="cls-19" cx="41.14" cy="55.41" r="0.89" transform="translate(-25.6 72.99) rotate(-68.16)"/><circle class="cls-19" cx="82.71" cy="57.3" r="0.89" transform="translate(-1.24 112.76) rotate(-68.16)"/><circle class="cls-20" cx="61.63" cy="89.23" r="0.82" transform="matrix(1, -0.02, 0.02, 1, -1.68, 1.18)"/><path class="cls-21" d="M62.08,88.54A1,1,0,0,1,61.46,90a0.82,0.82,0,0,0,1-.59A0.81,0.81,0,0,0,62.08,88.54Z"/><path class="cls-5" d="M62.89,90.38L62.26,91l-0.73.75c-0.28.3-.64,0.59-1,0.94a4.42,4.42,0,0,1-.72.49,2,2,0,0,1-1.16.32,1.4,1.4,0,0,1-1-.44L57.57,93a1.67,1.67,0,0,1-.18-0.27,2.16,2.16,0,0,1-.2-0.51,3.5,3.5,0,0,1,0-1.43,6.54,6.54,0,0,1,.76-2.18,7.6,7.6,0,0,1,1.32-1.81l0.35-.34c0.14-.13.29-0.26,0.44-0.38a6.23,6.23,0,0,1,.92-0.62,6.6,6.6,0,0,1,2.15-.84,3.53,3.53,0,0,1,1.43,0,1.82,1.82,0,0,1,.91.47l0.05,0,0.13,0.15,0,0.05,0,0.1a1.61,1.61,0,0,1,.18.55,2.06,2.06,0,0,1-.27,1.17,4.42,4.42,0,0,1-.46.74c-0.34.42-.61,0.78-0.9,1.07l-0.72.76Zm-0.14-.14s0.22-.23.58-0.66a9.52,9.52,0,0,0,1.26-1.93,2.49,2.49,0,0,0,.3-1.42c-0.09-.5-0.77-0.44-1.28-0.22a6.66,6.66,0,0,0-1.56.93,12,12,0,0,0-1.41,1.28,9.27,9.27,0,0,0-2.09,3,1.94,1.94,0,0,0-.13.8,0.52,0.52,0,0,0,.13.32,0.47,0.47,0,0,0,.27.15,2.49,2.49,0,0,0,1.4-.36,9.52,9.52,0,0,0,1.89-1.33C62.52,90.48,62.74,90.24,62.74,90.24Z"/><path class="cls-5" d="M62.93,88.17l0.53,0.72a19.94,19.94,0,0,1,1.33,2,4.07,4.07,0,0,1,.31.76,1.85,1.85,0,0,1,0,1,1.05,1.05,0,0,1-.43.62l-0.09.06-0.2.08a1.25,1.25,0,0,1-.38.06,2.66,2.66,0,0,1-1.1-.25,7.53,7.53,0,0,1-1.73-1.09,13,13,0,0,1-1.49-1.41,14.37,14.37,0,0,1-1.28-1.63,6.21,6.21,0,0,1-.93-1.94,2.87,2.87,0,0,1,0-1.34A1.73,1.73,0,0,1,58,85l0.05,0,0,0h0l0.12-.09,0,0,0.1,0a1.8,1.8,0,0,1,.6-0.16,2.13,2.13,0,0,1,1.22.33,3.63,3.63,0,0,1,.72.56,16.09,16.09,0,0,1,1.53,2C62.74,87.91,62.93,88.17,62.93,88.17Zm-0.16.12-0.16-.17a4.51,4.51,0,0,0-.48-0.44,5.6,5.6,0,0,0-.84-0.57,6.48,6.48,0,0,0-1.17-.5,4.34,4.34,0,0,0-.62-0.16,0.42,0.42,0,0,0-.35,0,0.32,0.32,0,0,0,.19-0.07l-0.09.06,0,0,0.11-.08h0c0.09-.08.11-0.14,0.11-0.13a2.67,2.67,0,0,0,.07.42,8.05,8.05,0,0,0,.53,1.49,9.93,9.93,0,0,0,.9,1.55,11.55,11.55,0,0,0,1.16,1.4,6.36,6.36,0,0,0,1.31,1.07,1.74,1.74,0,0,0,.6.23s0.08,0,.05,0,0,0,0,0l0.1,0s0,0,.06-0.05a2.36,2.36,0,0,0,0-1.28A6.12,6.12,0,0,0,63.32,89,7.29,7.29,0,0,0,62.78,88.3Z"/><circle class="cls-22" cx="64.66" cy="87.8" r="0.23" transform="translate(-1.65 1.24) rotate(-1.08)"/><circle class="cls-23" cx="64.58" cy="92.7" r="0.23" transform="translate(-34.28 147.4) rotate(-84.09)"/><path class="cls-4" d="M71.53,92.29c-0.71,3.69,1.75,6.58,5.13,7.55q-0.77-.33.42,0.16,0.73,0.31,1.43.67a18.54,18.54,0,0,1,2.1,1.22,18.1,18.1,0,0,1,3.9,3.69c2.26,3.2,1.82,7.87,1.69,11.72-0.12,3.52,3.67,6.21,6.89,6,3.78-.27,5.86-3.38,6-6.89,0.21-6.33-.38-12.42-3.8-17.92s-10-9.52-16.2-11.29C75.69,86.19,72.14,89.07,71.53,92.29Z"/><path class="cls-5" d="M93.86,107.5a38.65,38.65,0,0,0-7.74,2.55q0.1,0.74.15,1.49a50,50,0,0,1,12.71-.9,33.55,33.55,0,0,0-.54-4C96.91,106.94,95.38,107.2,93.86,107.5Z"/><path class="cls-5" d="M91.44,101.47c-2.12,1.76-4.09,3.7-6.14,5.53a10.49,10.49,0,0,1,.57,1.73,33.71,33.71,0,0,1,6.87-2.34c1.8-.35,3.61-0.66,5.42-1A24,24,0,0,0,95.62,99,17.33,17.33,0,0,0,91.44,101.47Z"/><path class="cls-5" d="M83.27,104.14a12,12,0,0,1,1.23,1.42c0.06,0.08.1,0.17,0.15,0.25,2-1.83,3.88-3.77,6.06-5.44A21.3,21.3,0,0,1,95,98a22.7,22.7,0,0,0-4.47-4.87C87.43,96.27,85.31,100.16,83.27,104.14Z"/><path class="cls-5" d="M71.53,92.29c-0.71,3.69,1.75,6.58,5.13,7.55q-0.77-.33.42,0.16,0.73,0.31,1.43.67a18.54,18.54,0,0,1,2.1,1.22,19.65,19.65,0,0,1,1.68,1.33A45.89,45.89,0,0,1,89.46,92.3a32.63,32.63,0,0,0-10.38-5.14C75.69,86.19,72.14,89.07,71.53,92.29Z"/><path class="cls-5" d="M99.06,112a48.29,48.29,0,0,0-12.74.91c0,1.51-.07,3-0.12,4.43-0.12,3.52,3.67,6.21,6.89,6,3.78-.27,5.86-3.38,6-6.89C99.12,114.88,99.12,113.41,99.06,112Z"/><path class="cls-9" d="M82.15,125.41c1.12,1.35,2.44-.28,3.23-1.41,0.3-.44.62-1.1,1-1.56-0.16,1.3-.62,2.61-0.75,3.91a6.3,6.3,0,0,0,1,4.14A4.39,4.39,0,0,0,92.49,132c2.44-1.48,4-4.39,5-7.06a31.91,31.91,0,0,0,1.27-4.38c0.21-.91.82-3,0-3.68a8.12,8.12,0,0,0-3.29-1.19,14.6,14.6,0,0,0-5.48,0,8.16,8.16,0,0,0-3.59,1c-1.07.76-1.82,2.25-2.63,3.31C82.82,121.35,80.9,123.9,82.15,125.41Z"/><path class="cls-10" d="M83.68,120.56c2.45-1.85,7.78-3,10.27-.51a5.08,5.08,0,0,1,1.66,4.1,6.56,6.56,0,0,1-.54,2.21l-0.51,1.22a1.8,1.8,0,0,0,0,.51,0.77,0.77,0,0,0,.54.71h0.08l0.39,0A21.71,21.71,0,0,0,97.5,125a31.93,31.93,0,0,0,1.27-4.38c0.21-.91.82-3,0-3.68a8.12,8.12,0,0,0-3.29-1.19,14.6,14.6,0,0,0-5.48,0,8.16,8.16,0,0,0-3.59,1c-1.07.76-1.82,2.25-2.63,3.31-0.22.29-.5,0.66-0.77,1.06A7.69,7.69,0,0,1,83.68,120.56Z"/><path class="cls-6" d="M85.74,117.53a24.72,24.72,0,0,1,5.62-.45,16.3,16.3,0,0,1,7,1.19c2,0.92,3.45-2.1,1.49-3a19,19,0,0,0-6.93-1.48,26.27,26.27,0,0,0-8.25.58C82.57,115,83.66,118.14,85.74,117.53Z"/><path class="cls-7" d="M87,115.26c0.91-.09,1.82-0.19,2.73-0.22a23.72,23.72,0,0,1,4.09.14c2.42,0.35,4.81.73,6.75,2.25a1.55,1.55,0,0,0-.74-2.18,19,19,0,0,0-6.93-1.48,28.68,28.68,0,0,0-7.55.4C85.26,114.86,86,115.37,87,115.26Z"/><path class="cls-24" d="M77.13,105.89c0.07-4.28-2.63-5.47-6.22-5.63H70.7c-7.54.46-14.84-1.49-22.33,1.27l-0.3.21a4.47,4.47,0,0,0-1.37,1.67l-0.1.24a13.1,13.1,0,0,0-.48,4.12q0,0.13,0,.26c-0.07.59-.11,1.18-0.13,1.77q0,0.13,0,.25c0.12,4.31-.37,8.2,1.07,12.79l0.12,0.2a4.82,4.82,0,0,0,1,1.11c2.28,1.82,5.47,2.26,8.27,2.58a47.83,47.83,0,0,0,13.23-.25c0.56-.09,1.35-0.19,2.21-0.34l0.44-.08c3-.41,4-2.3,4.14-4.71q0-.13,0-0.26a14.56,14.56,0,0,0,.27-2.3q0-.13,0-0.25c0-1.21,0-2.51,0-3.83v-0.27c0-1.18,0-2.45,0-3.72v-0.25a18.25,18.25,0,0,1,.25-4q0-.18.08-0.35Z"/><path class="cls-25" d="M71.8,122.16c-3.13,1.57-6.76,2.88-10.35,2.49a32.71,32.71,0,0,1-8.78-1.75,16.83,16.83,0,0,1-6.35-3.35,21.49,21.49,0,0,0,.75,3.28l0.12,0.2a4.82,4.82,0,0,0,1,1.11c2.28,1.82,5.47,2.26,8.27,2.58a47.84,47.84,0,0,0,13.23-.25c0.56-.09,1.35-0.19,2.21-0.34l0.44-.08c3-.41,4-2.3,4.14-4.71q0-.13,0-0.26a14.56,14.56,0,0,0,.27-2.3q0-.13,0-0.25V118A14.69,14.69,0,0,1,71.8,122.16Z"/><path class="cls-5" d="M54.65,104.12a3.38,3.38,0,0,0-2.61-.66l-0.14,0-0.3.07-0.18.06a4.18,4.18,0,0,0-1.32.72,3.52,3.52,0,0,0-.6,4.51,3.17,3.17,0,0,0,4.74.7l0.19-.17a3.62,3.62,0,0,0,.72-0.49C56.74,107.47,56.19,105.29,54.65,104.12Z"/><path class="cls-26" d="M55.47,105a4,4,0,0,1-4.13,3.87,4.23,4.23,0,0,1-2.13-.53,3,3,0,0,0,.29.54,3.17,3.17,0,0,0,4.74.7l0.19-.17a3.62,3.62,0,0,0,.72-0.49A2.83,2.83,0,0,0,55.47,105Z"/><path class="cls-5" d="M64.21,104.74a3.4,3.4,0,0,0-1.47-1,2.35,2.35,0,0,0-.4-0.11,2.63,2.63,0,0,0-3.62,2.72,3.72,3.72,0,0,0,0,1.13,3.31,3.31,0,0,0,1.79,2.28,3,3,0,0,0,2,.19,2.85,2.85,0,0,0,2.55-2.19A3.41,3.41,0,0,0,64.21,104.74Z"/><path class="cls-26" d="M64.75,105.51a4,4,0,0,1-4.05,3.33,4.52,4.52,0,0,1-1.45-.23,3.21,3.21,0,0,0,1.29,1.12,3,3,0,0,0,2,.19,2.85,2.85,0,0,0,2.55-2.19A3.3,3.3,0,0,0,64.75,105.51Z"/><path class="cls-5" d="M74.37,106.33a1.77,1.77,0,0,0-.8-2,3.32,3.32,0,0,0-1.12-.36,3.72,3.72,0,0,0-.85-0.35,2.76,2.76,0,0,0-2.14.33,3.05,3.05,0,0,0-1.28.87,2.7,2.7,0,0,0-.28,3.18,4.36,4.36,0,0,0,4.58,2,2.86,2.86,0,0,0,2-2.83A3.1,3.1,0,0,0,74.37,106.33Z"/><path class="cls-26" d="M74.37,106.33a1.87,1.87,0,0,0-.07-1.22,4.34,4.34,0,0,1-4.23,3.62H70a4.2,4.2,0,0,1-1.8-.41A4.35,4.35,0,0,0,72.49,110a2.86,2.86,0,0,0,2-2.83A3.1,3.1,0,0,0,74.37,106.33Z"/><path class="cls-5" d="M74.62,114c-1.11-1.11-3.45-.89-4.84-0.83-4,.18-8.09.21-12.15,0.2a24.52,24.52,0,0,0-8.36-.32,1.75,1.75,0,0,0-1.3,1.71,53.27,53.27,0,0,0,.88,6.21,1.72,1.72,0,0,0,1.24,1.24,112.23,112.23,0,0,0,17.45,1.15c1.59,0,4.1.52,5.52-.37,1.76-1.09,1.66-2.43,1.93-4.31C75.19,117.32,75.77,115.18,74.62,114Z"/><path class="cls-26" d="M64.64,122c-5-.05-10.29-0.25-15-2.15a10.57,10.57,0,0,1-1.06-.5q0.14,0.81.3,1.62a1.72,1.72,0,0,0,1.24,1.24,112.23,112.23,0,0,0,17.45,1.15c1.59,0,4.1.52,5.52-.37s1.64-2,1.81-3.33C72,121.61,68.43,122.07,64.64,122Z"/><path class="cls-2" d="M80.93,96.15l0.22-.33-0.82-.43a0.78,0.78,0,0,0-.17,0l0,0-0.12.18Zm0.69-1c-0.25-.17-0.47-0.33-0.72-0.48a1.22,1.22,0,0,0-.35-0.13c-0.1,0-.15,0-0.1.14a0.69,0.69,0,0,0,.16.21c0.2,0.16.4,0.31,0.6,0.47L81.4,95.5Zm0.54-.8-0.81-.49a0.55,0.55,0,0,0-.24-0.06,0.18,0.18,0,0,0-.14.07,0.25,0.25,0,0,0,0,.17,0.23,0.23,0,0,0,.09.09l0.77,0.53,0.08,0Zm-4,3c-0.05.23-.12,0.46-0.15,0.7a1,1,0,0,0,0,.36,0.2,0.2,0,0,0,.26.15,1.79,1.79,0,0,0,.45-0.2,7.45,7.45,0,0,0,1.32-1.24l0.4-.47L80,96.35a0.56,0.56,0,0,0-.41-0.19,0.19,0.19,0,0,1-.09-0.07L79.44,96a0.39,0.39,0,0,0-.51-0.15l-0.14,0a0.14,0.14,0,0,1-.16-0.11,0.87,0.87,0,0,1,0-.49,6,6,0,0,1,.86-1.56,7,7,0,0,1,1-1.25,1.23,1.23,0,0,1,.37-0.21c0.12,0,.16,0,0.19.12l0,0.07L81.48,92a9,9,0,0,1,1.15-1.24,8.16,8.16,0,0,1,.74-0.57,0.73,0.73,0,0,1,.31-0.1,0.2,0.2,0,0,1,.23.19,1.37,1.37,0,0,1,0,.44c-0.09.33-.2,0.64-0.3,1l0,0c0.06-.23.12-0.46,0.17-0.7a1.11,1.11,0,0,0,0-.34,0.25,0.25,0,0,0-.34-0.23,1.54,1.54,0,0,0-.56.3A8.56,8.56,0,0,0,81.65,92c-0.14.15-.26,0.32-0.4,0.47a0.12,0.12,0,0,0,0,.19,0.69,0.69,0,0,0,.12.09l0.56,0.38,0,0,0.28,0.45,0,0-0.46-.28-0.07,0H81.5l0.06,0.16a0.16,0.16,0,0,1,0,.06,0.2,0.2,0,0,0,.1.24l0.55,0.37c0.06,0,.09,0,0.12,0a2.82,2.82,0,0,1,.3-0.4c-0.41.64-.81,1.29-1.24,1.92a18,18,0,0,1-1.7,2.16,6,6,0,0,1-1.26,1.11,1.07,1.07,0,0,1-.32.12,0.22,0.22,0,0,1-.28-0.21,2,2,0,0,1,0-.52c0.07-.29.17-0.57,0.25-0.85h0"/><path class="cls-2" d="M78.83,93.26l0.16,0a0.27,0.27,0,0,0,.13-0.43,0.4,0.4,0,0,0-.61,0,0.44,0.44,0,0,0-.11.35,0.43,0.43,0,0,1,.43-0.61,0.15,0.15,0,0,0-.19-0.07,0.66,0.66,0,0,0-.37.39,0.33,0.33,0,0,0,.08.38,1.25,1.25,0,0,0,.24.19,0.42,0.42,0,0,0,.56-0.07,0.53,0.53,0,0,0,.1-0.67,0.48,0.48,0,0,0-.36-0.2,2,2,0,0,0,.2.18,0.37,0.37,0,0,1,.08.55,0.25,0.25,0,0,1-.34.07m1.05-1.54,0,0c-0.06.13,0,.19,0.11,0.25a0.1,0.1,0,0,1,0,.14,0.46,0.46,0,0,1-.31.24c-0.07,0-.14.07-0.22,0.08a3,3,0,0,1-.32,0,0.57,0.57,0,0,1,0,1,0.62,0.62,0,0,1-.85-0.08c0,0.11.05,0.13,0.1,0.19a0.19,0.19,0,0,0,.12.26L78.81,94a0.12,0.12,0,0,1,0,.1,0.33,0.33,0,0,1-.07.19,0.43,0.43,0,0,1-.2-0.06l-0.06.43c0,0.12,0,.13-0.15.08s-0.15-.1-0.21,0,0,0.15.1,0.19L78.45,95l0.18,0.12,0,0.14-0.2-.13a0.2,0.2,0,0,0-.22,0,0.17,0.17,0,0,1-.19,0,1.38,1.38,0,0,0-.41-0.31,0.38,0.38,0,0,1-.18-0.33,3,3,0,0,1,.29.16,0.12,0.12,0,0,0,.2,0l0.14-.2-0.38-.18a0.22,0.22,0,0,1-.1-0.1,1.59,1.59,0,0,1,0-1.23,0.12,0.12,0,0,0-.07-0.16l-1.13-.76-0.09-.06v0l0.13,0.06,1.11,0.69a0.13,0.13,0,0,0,.21,0,3.17,3.17,0,0,1,.43-0.35,1.16,1.16,0,0,0-.36.55,2.18,2.18,0,0,0-.11.26,0.11,0.11,0,0,0,0,.1c0.08,0,.07.08,0,0.14a2,2,0,0,0-.12.2,0.2,0.2,0,0,0,0,.15A1.2,1.2,0,0,0,78,93a0.79,0.79,0,0,1,.38-0.65,1.06,1.06,0,0,0-.31.47,0.66,0.66,0,0,0,.11.61,0.15,0.15,0,0,1,0,.21c0.09,0,.11-0.06.09-0.13a0.37,0.37,0,0,0-.06-0.1,0.68,0.68,0,0,1,0-.79,0.71,0.71,0,0,1,.73-0.38,0.55,0.55,0,0,0,.42-0.1,1.6,1.6,0,0,0,.49-0.44l0,0"/><path class="cls-2" d="M75.2,92.53A0.63,0.63,0,0,0,75,92a2.07,2.07,0,0,1-.35-0.73,3.12,3.12,0,0,0-.48-1A0.13,0.13,0,0,0,74,90.26a0.11,0.11,0,0,1-.15-0.09,0.14,0.14,0,0,1,.06-0.11c0.07,0,.12,0,0.17.06a1.14,1.14,0,0,0,.18.17l0.68,0.46a0.37,0.37,0,0,1,.1.18,1.26,1.26,0,0,1,.09.35,0.45,0.45,0,0,0,.18.32,0.79,0.79,0,0,1,.15.16,0.68,0.68,0,0,1,.06.57,0.28,0.28,0,0,1-.32.19"/><path class="cls-2" d="M74.17,79.91V77.43c5.62,0,10.78-1.37,14.52-3.86,4-2.68,6.41-5,6.41-9.51l0.41-3.24c0,5.43-.7,11.65-5.45,14.81C85.92,78.39,80.27,79.91,74.17,79.91Z"/><path class="cls-27" d="M71.37,79V78.18a1.86,1.86,0,0,1,1.94-1.85l5.28,0.24a1.05,1.05,0,0,1,1,1.05v1.79a1.05,1.05,0,0,1-1,1.05l-5.26.43a1.86,1.86,0,0,1-2-1.85h0Z"/><path class="cls-28" d="M95.36,87.64v3.88a3.26,3.26,0,0,0,3.26-3.26V87.64H95.36Z"/><path class="cls-2" d="M94.21,92.72h0.45A0.71,0.71,0,0,0,95.36,92V83.26a0.71,0.71,0,0,0-.71-0.71H94.21a0.71,0.71,0,0,0-.71.71V92a0.71,0.71,0,0,0,.71.71h0Z"/><path class="cls-29" d="M95.36,83.75v3.88h3.26V87a3.26,3.26,0,0,0-3.26-3.26h0Z"/></g></g></svg>