<svg id="Layer_1" data-name="Layer 1" xmlns="http://www.w3.org/2000/svg" viewBox="0 0 89.7 85.36"><defs><style>.cls-1{fill:#fff;}</style></defs><title>clara-cats</title><path class="cls-1" d="M44.73,4.21A39.69,39.69,0,0,0,27.26,79.53c0.67-1.06,2.84-1.66,3.67-1-2.4-2-3.83-5.35-5-8.16a4.29,4.29,0,0,1-.3-3.64,2.66,2.66,0,0,1,2.94-1.49,3.1,3.1,0,0,1,.53.1c0.71-5.77,2.8-14.68,5.81-20.08a6.37,6.37,0,0,1-1.85-1.37,13.68,13.68,0,0,1-3.79-2.61,4.55,4.55,0,0,0-1.27,0A2.59,2.59,0,0,0,26.3,42.8a6.73,6.73,0,0,1,.1-3.47,2.92,2.92,0,0,0-.91.95,11.56,11.56,0,0,1,.06-3.22,12.88,12.88,0,0,1-1.26-.3A2.28,2.28,0,0,0,25.81,35a12.54,12.54,0,0,1,0-1.41c0-.5-0.07-1-0.07-1.55a18.49,18.49,0,0,1,2.14-8.6,20.8,20.8,0,0,1-1.35-3.62,11.58,11.58,0,0,1-.76-4.9h0q0-.25.09-0.49V14.36A4.36,4.36,0,0,1,26,13.93l0-.08a3.78,3.78,0,0,1,.16-0.37l0-.09A3.42,3.42,0,0,1,26.47,13S29,11.38,36.7,15.09a17.1,17.1,0,0,1,6.94-1.47H43.8A2.73,2.73,0,0,0,44.16,12,12.88,12.88,0,0,1,45,13a11.55,11.55,0,0,1,2.87-1.47,2.92,2.92,0,0,0-.45,1.23,6.73,6.73,0,0,1,3.07-1.61,2.59,2.59,0,0,0-.63,2.21c0.14,0.62.86,1.27,0.78,1.74l0.25,0.12C58.75,11.35,61.38,13,61.38,13a3.42,3.42,0,0,1,.26.42l0,0.09a3.78,3.78,0,0,1,.16.37l0,0.08a4.36,4.36,0,0,1,.12.42v0.05q0.05,0.24.09,0.49h0a11.58,11.58,0,0,1-.76,4.9A22,22,0,0,1,59.71,24a18.46,18.46,0,0,1,1.85,8,16.11,16.11,0,0,1-.22,2.69c0,0.09,0,.18,0,0.27a2.28,2.28,0,0,0,1.52,1.76,12.88,12.88,0,0,1-1.26.3,11.56,11.56,0,0,1,.06,3.22,2.92,2.92,0,0,0-.91-0.95,6.73,6.73,0,0,1,.1,3.47,2.59,2.59,0,0,0-1.71-1.54,3.62,3.62,0,0,0-1.12,0A13.79,13.79,0,0,1,54,44a8.16,8.16,0,0,1-1.68,1.39c1.15,4.9,3.49,9,5,13.39a17.44,17.44,0,0,1,3.89-6.91c0-.53.83-0.87,1.34-1.28a2.28,2.28,0,0,0,.52-2.27,12.88,12.88,0,0,1,1,.84,11.55,11.55,0,0,1,2.56-2,2.92,2.92,0,0,0-.23,1.3,6.73,6.73,0,0,1,2.74-2.13,2.59,2.59,0,0,0-.23,2.29v0c2.39,0.31,4.36,1.78,3.68,4.76-1,4.37-6.31,1.62-9.2,3.49-2.13,1.37-3.63,4.49-4.75,7.31,0,0.34.07,0.68,0.09,1a2.69,2.69,0,0,1,2.91,1.88,8,8,0,0,1-.78,5.4,15.08,15.08,0,0,1-2.13,3.22c-0.39.45-.8,0.89-1.23,1.3a4.88,4.88,0,0,1-1.36,1.2,4.13,4.13,0,0,1,3.33.42,1.52,1.52,0,0,1,.46,1.86A39.69,39.69,0,0,0,44.73,4.21Z"/></svg>